<svg fill="none" height="48" stroke="#fff" stroke-linecap="round" stroke-linejoin="round" viewBox="0 0 24 24" width="48" xmlns="http://www.w3.org/2000/svg"><path d="m11.25 16.25h1.5l-.75.75z"/><path d="m16 14v.5"/><path d="m4.42 11.247a13.152 13.152 0 0 0 -.42 3.309c0 4.172 3.582 6.444 8 6.444s8-2.272 8-6.444a11.702 11.702 0 0 0 -.493-3.309"/><path d="m8 14v.5"/><path d="m8.5 8.5c-.384 1.05-1.083 2.028-2.344 2.5-1.931.722-3.576-.297-3.656-1-.113-.994 1.177-6.53 4-7 1.923-.321 3.651.845 3.651 2.235a7.497 7.497 0 0 1 3.849.042c0-1.39 1.844-2.598 3.767-2.277 2.823.47 4.113 6.006 4 7-.08.703-1.725 1.722-3.656 1-1.261-.472-1.855-1.45-2.239-2.5"/></svg>